<svg width="241" height="240" viewBox="0 0 241 240" fill="none" xmlns="http://www.w3.org/2000/svg">
<rect x="0.0166016" width="240" height="240" rx="120" fill="url(#paint0_linear_985_1363)"/>
<mask id="path-2-outside-1_985_1363" maskUnits="userSpaceOnUse" x="82.5166" y="76" width="68" height="89" fill="black">
<rect fill="white" x="82.5166" y="76" width="68" height="89"/>
<path d="M110.557 133.84C110.557 129.68 111.477 126.24 113.317 123.52C115.237 120.8 117.997 117.8 121.597 114.52C124.237 112.12 126.157 110.12 127.357 108.52C128.637 106.84 129.277 104.96 129.277 102.88C129.277 99.92 128.077 97.6 125.677 95.92C123.357 94.16 120.237 93.28 116.317 93.28C112.557 93.28 109.197 94.08 106.237 95.68C103.357 97.2 100.917 99.36 98.9166 102.16L84.3966 93.64C87.7566 88.52 92.2766 84.56 97.9566 81.76C103.717 78.96 110.517 77.56 118.357 77.56C127.557 77.56 134.917 79.52 140.437 83.44C146.037 87.36 148.837 92.8 148.837 99.76C148.837 103.04 148.277 105.92 147.157 108.4C146.117 110.88 144.797 113 143.197 114.76C141.677 116.44 139.677 118.4 137.197 120.64C134.237 123.28 132.077 125.52 130.717 127.36C129.357 129.12 128.677 131.28 128.677 133.84H110.557ZM119.677 163.96C116.397 163.96 113.637 162.92 111.397 160.84C109.237 158.68 108.157 156.08 108.157 153.04C108.157 150 109.237 147.48 111.397 145.48C113.557 143.4 116.317 142.36 119.677 142.36C123.037 142.36 125.797 143.4 127.957 145.48C130.117 147.48 131.197 150 131.197 153.04C131.197 156.08 130.077 158.68 127.837 160.84C125.677 162.92 122.957 163.96 119.677 163.96Z"/>
</mask>
<path d="M110.557 133.84C110.557 129.68 111.477 126.24 113.317 123.52C115.237 120.8 117.997 117.8 121.597 114.52C124.237 112.12 126.157 110.12 127.357 108.52C128.637 106.84 129.277 104.96 129.277 102.88C129.277 99.92 128.077 97.6 125.677 95.92C123.357 94.16 120.237 93.28 116.317 93.28C112.557 93.28 109.197 94.08 106.237 95.68C103.357 97.2 100.917 99.36 98.9166 102.16L84.3966 93.64C87.7566 88.52 92.2766 84.56 97.9566 81.76C103.717 78.96 110.517 77.56 118.357 77.56C127.557 77.56 134.917 79.52 140.437 83.44C146.037 87.36 148.837 92.8 148.837 99.76C148.837 103.04 148.277 105.92 147.157 108.4C146.117 110.88 144.797 113 143.197 114.76C141.677 116.44 139.677 118.4 137.197 120.64C134.237 123.28 132.077 125.52 130.717 127.36C129.357 129.12 128.677 131.28 128.677 133.84H110.557ZM119.677 163.96C116.397 163.96 113.637 162.92 111.397 160.84C109.237 158.68 108.157 156.08 108.157 153.04C108.157 150 109.237 147.48 111.397 145.48C113.557 143.4 116.317 142.36 119.677 142.36C123.037 142.36 125.797 143.4 127.957 145.48C130.117 147.48 131.197 150 131.197 153.04C131.197 156.08 130.077 158.68 127.837 160.84C125.677 162.92 122.957 163.96 119.677 163.96Z" fill="#0022FF"/>
<path d="M110.557 133.84H109.557V134.84H110.557V133.84ZM113.317 123.52L112.5 122.943L112.494 122.951L112.488 122.96L113.317 123.52ZM121.597 114.52L120.924 113.78L120.923 113.781L121.597 114.52ZM127.357 108.52L126.561 107.914L126.557 107.92L127.357 108.52ZM125.677 95.92L125.072 96.7167L125.087 96.7283L125.103 96.7392L125.677 95.92ZM106.237 95.68L106.703 96.5644L106.712 96.5597L106.237 95.68ZM98.9166 102.16L98.4105 103.022L99.199 103.485L99.7303 102.741L98.9166 102.16ZM84.3966 93.64L83.5606 93.0913L82.9837 93.9704L83.8905 94.5025L84.3966 93.64ZM97.9566 81.76L97.5194 80.8606L97.5144 80.8631L97.9566 81.76ZM140.437 83.44L139.858 84.2553L139.863 84.2592L140.437 83.44ZM147.157 108.4L146.245 107.988L146.24 108.001L146.234 108.013L147.157 108.4ZM143.197 114.76L142.457 114.087L142.455 114.089L143.197 114.76ZM137.197 120.64L137.862 121.386L137.867 121.382L137.197 120.64ZM130.717 127.36L131.508 127.971L131.514 127.963L131.521 127.954L130.717 127.36ZM128.677 133.84V134.84H129.677V133.84H128.677ZM111.397 160.84L110.689 161.547L110.703 161.56L110.716 161.573L111.397 160.84ZM111.397 145.48L112.076 146.214L112.083 146.207L112.09 146.2L111.397 145.48ZM127.957 145.48L127.263 146.2L127.27 146.207L127.277 146.214L127.957 145.48ZM127.837 160.84L128.53 161.56L128.531 161.56L127.837 160.84ZM110.557 133.84H111.557C111.557 129.827 112.443 126.596 114.145 124.08L113.317 123.52L112.488 122.96C110.51 125.884 109.557 129.533 109.557 133.84H110.557ZM113.317 123.52L114.134 124.097C115.997 121.456 118.701 118.511 122.27 115.259L121.597 114.52L120.923 113.781C117.292 117.089 114.476 120.144 112.5 122.943L113.317 123.52ZM121.597 114.52L122.269 115.26C124.926 112.845 126.9 110.795 128.157 109.12L127.357 108.52L126.557 107.92C125.413 109.445 123.547 111.395 120.924 113.78L121.597 114.52ZM127.357 108.52L128.152 109.126C129.563 107.275 130.277 105.183 130.277 102.88H129.277H128.277C128.277 104.737 127.711 106.405 126.561 107.914L127.357 108.52ZM129.277 102.88H130.277C130.277 99.5977 128.921 96.9702 126.25 95.1008L125.677 95.92L125.103 96.7392C127.233 98.2298 128.277 100.242 128.277 102.88H129.277ZM125.677 95.92L126.281 95.1233C123.736 93.1924 120.38 92.28 116.317 92.28V93.28V94.28C120.093 94.28 122.978 95.1276 125.072 96.7167L125.677 95.92ZM116.317 93.28V92.28C112.41 92.28 108.884 93.1124 105.761 94.8003L106.237 95.68L106.712 96.5597C109.51 95.0476 112.703 94.28 116.317 94.28V93.28ZM106.237 95.68L105.77 94.7956C102.744 96.3924 100.188 98.6594 98.1029 101.579L98.9166 102.16L99.7303 102.741C101.645 100.061 103.969 98.0076 106.703 96.5644L106.237 95.68ZM98.9166 102.16L99.4227 101.298L84.9027 92.7775L84.3966 93.64L83.8905 94.5025L98.4105 103.022L98.9166 102.16ZM84.3966 93.64L85.2326 94.1887C88.4913 89.223 92.8731 85.3809 98.3988 82.6569L97.9566 81.76L97.5144 80.8631C91.6801 83.7391 87.0219 87.817 83.5606 93.0913L84.3966 93.64ZM97.9566 81.76L98.3938 82.6594C103.99 79.9388 110.635 78.56 118.357 78.56V77.56V76.56C110.398 76.56 103.443 77.9812 97.5194 80.8606L97.9566 81.76ZM118.357 77.56V78.56C127.422 78.56 134.558 80.4917 139.858 84.2553L140.437 83.44L141.016 82.6247C135.275 78.5482 127.691 76.56 118.357 76.56V77.56ZM140.437 83.44L139.863 84.2592C145.19 87.9881 147.837 93.1192 147.837 99.76H148.837H149.837C149.837 92.4808 146.883 86.7319 141.01 82.6208L140.437 83.44ZM148.837 99.76H147.837C147.837 102.927 147.296 105.662 146.245 107.988L147.157 108.4L148.068 108.812C149.257 106.178 149.837 103.153 149.837 99.76H148.837ZM147.157 108.4L146.234 108.013C145.233 110.402 143.971 112.422 142.457 114.087L143.197 114.76L143.937 115.433C145.622 113.578 147 111.358 148.079 108.787L147.157 108.4ZM143.197 114.76L142.455 114.089C140.965 115.736 138.992 117.671 136.526 119.898L137.197 120.64L137.867 121.382C140.361 119.129 142.388 117.144 143.938 115.431L143.197 114.76ZM137.197 120.64L136.531 119.894C133.551 122.551 131.332 124.844 129.912 126.766L130.717 127.36L131.521 127.954C132.821 126.196 134.922 124.009 137.862 121.386L137.197 120.64ZM130.717 127.36L129.925 126.749C128.41 128.709 127.677 131.094 127.677 133.84H128.677H129.677C129.677 131.466 130.303 129.531 131.508 127.971L130.717 127.36ZM128.677 133.84V132.84H110.557V133.84V134.84H128.677V133.84ZM119.677 163.96V162.96C116.629 162.96 114.118 162.002 112.077 160.107L111.397 160.84L110.716 161.573C113.155 163.838 116.164 164.96 119.677 164.96V163.96ZM111.397 160.84L112.104 160.133C110.13 158.159 109.157 155.813 109.157 153.04H108.157H107.157C107.157 156.347 108.343 159.201 110.689 161.547L111.397 160.84ZM108.157 153.04H109.157C109.157 150.268 110.128 148.018 112.076 146.214L111.397 145.48L110.717 144.746C108.345 146.942 107.157 149.732 107.157 153.04H108.157ZM111.397 145.48L112.09 146.2C114.041 144.322 116.541 143.36 119.677 143.36V142.36V141.36C116.092 141.36 113.072 142.478 110.703 144.76L111.397 145.48ZM119.677 142.36V143.36C122.812 143.36 125.312 144.322 127.263 146.2L127.957 145.48L128.65 144.76C126.281 142.478 123.261 141.36 119.677 141.36V142.36ZM127.957 145.48L127.277 146.214C129.225 148.018 130.197 150.268 130.197 153.04H131.197H132.197C132.197 149.732 131.008 146.942 128.636 144.746L127.957 145.48ZM131.197 153.04H130.197C130.197 155.801 129.192 158.144 127.142 160.12L127.837 160.84L128.531 161.56C130.961 159.216 132.197 156.359 132.197 153.04H131.197ZM127.837 160.84L127.143 160.12C125.188 162.003 122.724 162.96 119.677 162.96V163.96V164.96C123.189 164.96 126.166 163.837 128.53 161.56L127.837 160.84Z" fill="#D98383" mask="url(#path-2-outside-1_985_1363)"/>
<defs>
<linearGradient id="paint0_linear_985_1363" x1="196.5" y1="35.5" x2="12" y2="230" gradientUnits="userSpaceOnUse">
<stop stop-color="#790DB8"/>
<stop offset="1" stop-color="#B8238E"/>
</linearGradient>
</defs>
</svg>
